<?xml version="1.0" standalone="no"?><svg xmlns="http://www.w3.org/2000/svg" viewBox="0 0 1440 320"><path fill="#0099ff" fill-opacity="1" d="M0,32L26.7,32C53.3,32,107,32,160,53.3C213.3,75,267,117,320,160C373.3,203,427,245,480,234.7C533.3,224,587,160,640,160C693.3,160,747,224,800,229.3C853.3,235,907,181,960,149.3C1013.3,117,1067,107,1120,117.3C1173.3,128,1227,160,1280,149.3C1333.3,139,1387,85,1413,58.7L1440,32L1440,320L1413.3,320C1386.7,320,1333,320,1280,320C1226.7,320,1173,320,1120,320C1066.7,320,1013,320,960,320C906.7,320,853,320,800,320C746.7,320,693,320,640,320C586.7,320,533,320,480,320C426.7,320,373,320,320,320C266.7,320,213,320,160,320C106.7,320,53,320,27,320L0,320Z"></path></svg>